<svg xmlns="http://www.w3.org/2000/svg" viewBox="0 0 992 410" width="992" height="410" role="img" aria-label="How a hacker pass is generated: the dashboard calls qrRouter.generate, which checks isUserApprovedForEvent. Unapproved users get a 403. Approved users get a QR encoding their user id, then either an Apple pkpass fetched from R2 or a Google Wallet pass object signed with a service-account JWT."><rect x="25" y="55" width="148" height="52" rx="6" fill="#f1f3f5" fill-opacity="0.85"/><path d="M24.3 53.4 Q101.1 52.2 173.5 54.6 L175.5 55.5 Q173.7 82.7 173.2 107.5 L175.3 108.9 Q98.6 108.7 22.5 106.4 L24.3 107.1 Q21.8 82.4 22.4 54.2Z" fill="none" stroke="#1e1e1e" stroke-width="1.5" stroke-linecap="round" opacity="1"/><path d="M24.2 53.8 Q101.2 53.8 175.5 54.2 L173.8 53.7 Q175.9 81.3 175.0 106.8 L174.4 106.7 Q99.4 107.7 23.4 109.3 L22.5 109.2 Q22.3 80.3 22.9 53.9Z" fill="none" stroke="#1e1e1e" stroke-width="1.0" stroke-linecap="round" opacity="0.55"/><text x="99" y="86" font-family="ui-monospace, SFMono-Regular, Menlo, Consolas, monospace" font-size="13" fill="#1e1e1e" text-anchor="middle" font-weight="normal" opacity="1.0">dashboard</text><path d="M176.0 81.0 Q202.0 76.3 236.0 81.0" fill="none" stroke="#1e1e1e" stroke-width="1.4" stroke-linecap="round"/><path d="M227.4 83.5 L236.0 81.0 L228.4 76.2" fill="none" stroke="#1e1e1e" stroke-width="1.4" stroke-linecap="round" stroke-linejoin="round"/><rect x="239" y="55" width="194" height="52" rx="6" fill="#a5d8ff" fill-opacity="0.85"/><path d="M237.3 55.0 Q335.7 56.3 433.2 54.3 L434.5 53.5 Q432.4 82.8 432.4 108.1 L434.0 108.5 Q336.3 107.7 238.3 107.9 L238.8 106.8 Q239.2 78.6 237.2 54.7Z" fill="none" stroke="#1e1e1e" stroke-width="1.5" stroke-linecap="round" opacity="1"/><path d="M238.2 54.1 Q337.5 56.0 433.2 54.8 L433.4 53.1 Q435.2 82.7 432.7 108.4 L435.3 107.4 Q337.6 106.3 237.6 109.0 L237.5 107.0 Q239.2 80.5 236.5 55.0Z" fill="none" stroke="#1e1e1e" stroke-width="1.0" stroke-linecap="round" opacity="0.55"/><text x="336" y="79" font-family="ui-monospace, SFMono-Regular, Menlo, Consolas, monospace" font-size="13" fill="#1e1e1e" text-anchor="middle" font-weight="normal" opacity="1.0">qrRouter.generate</text><text x="336" y="96" font-family="ui-monospace, SFMono-Regular, Menlo, Consolas, monospace" font-size="11" fill="#1e1e1e" text-anchor="middle" font-weight="normal" opacity="0.65">walletType</text><path d="M436.0 81.0 Q466.5 83.1 496.0 81.0" fill="none" stroke="#1e1e1e" stroke-width="1.4" stroke-linecap="round"/><path d="M488.1 85.2 L496.0 81.0 L487.5 77.9" fill="none" stroke="#1e1e1e" stroke-width="1.4" stroke-linecap="round" stroke-linejoin="round"/><rect x="499" y="47" width="212" height="68" rx="6" fill="#fff3bf" fill-opacity="0.85"/><path d="M496.8 45.3 Q605.1 46.0 713.4 45.3 L712.5 45.6 Q712.4 79.3 710.9 114.7 L710.8 117.3 Q606.0 115.8 496.9 116.7 L499.3 117.3 Q498.3 82.0 497.0 46.8Z" fill="none" stroke="#1e1e1e" stroke-width="1.5" stroke-linecap="round" opacity="1"/><path d="M497.4 46.2 Q604.3 46.2 711.9 46.6 L710.6 46.9 Q713.4 80.0 711.9 116.5 L713.2 116.0 Q605.6 117.6 497.1 115.4 L497.5 116.8 Q498.2 81.2 496.9 45.7Z" fill="none" stroke="#1e1e1e" stroke-width="1.0" stroke-linecap="round" opacity="0.55"/><text x="605" y="74" font-family="ui-monospace, SFMono-Regular, Menlo, Consolas, monospace" font-size="13" fill="#1e1e1e" text-anchor="middle" font-weight="normal" opacity="1.0">isUserApproved</text><text x="605" y="91" font-family="ui-monospace, SFMono-Regular, Menlo, Consolas, monospace" font-size="13" fill="#1e1e1e" text-anchor="middle" font-weight="normal" opacity="1.0">ForEvent()</text><path d="M714.0 81.0 Q752.3 75.2 782.0 81.0" fill="none" stroke="#1e1e1e" stroke-width="1.4" stroke-linecap="round"/><path d="M773.2 83.0 L782.0 81.0 L774.6 75.8" fill="none" stroke="#1e1e1e" stroke-width="1.4" stroke-linecap="round" stroke-linejoin="round"/><text x="748" y="70" font-family="ui-monospace, SFMono-Regular, Menlo, Consolas, monospace" font-size="11" fill="#1e1e1e" text-anchor="middle" font-weight="normal" opacity="0.7">no</text><rect x="785" y="55" width="166" height="52" rx="6" fill="#ffc9c9" fill-opacity="0.85"/><path d="M782.8 52.9 Q868.8 52.3 953.1 53.7 L951.7 54.2 Q952.7 82.3 952.8 108.7 L951.5 106.7 Q868.3 107.4 783.3 107.4 L783.7 109.5 Q781.7 82.7 783.0 53.8Z" fill="none" stroke="#1e1e1e" stroke-width="1.5" stroke-linecap="round" opacity="1"/><path d="M783.1 52.5 Q865.8 52.8 951.5 54.2 L950.4 55.1 Q951.4 81.1 952.4 106.9 L952.8 106.9 Q868.7 106.1 784.3 108.2 L784.5 108.3 Q786.5 79.8 785.1 53.5Z" fill="none" stroke="#1e1e1e" stroke-width="1.0" stroke-linecap="round" opacity="0.55"/><text x="868" y="79" font-family="ui-monospace, SFMono-Regular, Menlo, Consolas, monospace" font-size="13" fill="#1e1e1e" text-anchor="middle" font-weight="normal" opacity="1.0">403</text><text x="868" y="96" font-family="ui-monospace, SFMono-Regular, Menlo, Consolas, monospace" font-size="11" fill="#1e1e1e" text-anchor="middle" font-weight="normal" opacity="0.7">FORBIDDEN</text><path d="M605.0 118.0 Q610.2 144.8 605.0 168.0" fill="none" stroke="#1e1e1e" stroke-width="1.4" stroke-linecap="round"/><path d="M603.2 159.2 L605.0 168.0 L610.4 160.8" fill="none" stroke="#1e1e1e" stroke-width="1.4" stroke-linecap="round" stroke-linejoin="round"/><text x="622" y="146" font-family="ui-monospace, SFMono-Regular, Menlo, Consolas, monospace" font-size="11" fill="#1e1e1e" text-anchor="start" font-weight="normal" opacity="0.7">yes</text><rect x="499" y="171" width="212" height="50" rx="6" fill="#f1f3f5" fill-opacity="0.85"/><path d="M499.2 168.7 Q604.6 170.3 712.1 168.7 L711.2 170.6 Q713.9 195.0 713.3 222.2 L712.6 221.2 Q605.1 221.3 496.6 223.0 L497.2 220.5 Q500.1 197.9 498.8 171.6Z" fill="none" stroke="#1e1e1e" stroke-width="1.5" stroke-linecap="round" opacity="1"/><path d="M499.5 168.9 Q606.6 169.2 713.5 169.4 L710.9 168.7 Q711.1 196.4 711.8 221.5 L711.1 222.7 Q605.2 219.7 499.2 220.4 L497.7 223.3 Q497.9 197.7 496.6 170.5Z" fill="none" stroke="#1e1e1e" stroke-width="1.0" stroke-linecap="round" opacity="0.55"/><text x="605" y="202" font-family="ui-monospace, SFMono-Regular, Menlo, Consolas, monospace" font-size="13" fill="#1e1e1e" text-anchor="middle" font-weight="normal" opacity="1.0">QR = user.id</text><path d="M540.0 224.0 Q429.3 257.6 330.0 290.0" fill="none" stroke="#1e1e1e" stroke-width="1.4" stroke-linecap="round"/><path d="M336.7 284.0 L330.0 290.0 L339.0 290.9" fill="none" stroke="#1e1e1e" stroke-width="1.4" stroke-linecap="round" stroke-linejoin="round"/><path d="M670.0 224.0 Q754.9 252.0 830.0 290.0" fill="none" stroke="#1e1e1e" stroke-width="1.4" stroke-linecap="round"/><path d="M821.0 289.6 L830.0 290.0 L824.3 283.0" fill="none" stroke="#1e1e1e" stroke-width="1.4" stroke-linecap="round" stroke-linejoin="round"/><rect x="177" y="293" width="266" height="94" rx="6" fill="#e5dbff" fill-opacity="0.85"/><path d="M176.3 290.8 Q310.3 292.9 445.2 292.5 L443.5 290.7 Q443.0 337.8 443.0 386.5 L444.1 388.4 Q307.8 388.2 174.7 387.5 L174.9 386.5 Q174.2 339.9 174.6 291.5Z" fill="none" stroke="#1e1e1e" stroke-width="1.5" stroke-linecap="round" opacity="1"/><path d="M174.6 292.2 Q310.6 290.7 443.4 290.8 L443.9 292.5 Q444.5 341.0 444.5 387.5 L445.6 387.7 Q312.2 388.1 176.4 386.6 L175.7 388.1 Q176.7 340.6 174.6 291.5Z" fill="none" stroke="#1e1e1e" stroke-width="1.0" stroke-linecap="round" opacity="0.55"/><text x="310" y="320" font-family="ui-monospace, SFMono-Regular, Menlo, Consolas, monospace" font-size="12" fill="#1e1e1e" text-anchor="middle" font-weight="bold" opacity="1.0">APPLE</text><text x="310" y="344" font-family="ui-monospace, SFMono-Regular, Menlo, Consolas, monospace" font-size="12" fill="#1e1e1e" text-anchor="middle" font-weight="normal" opacity="1.0">newest .pkpass</text><text x="310" y="366" font-family="ui-monospace, SFMono-Regular, Menlo, Consolas, monospace" font-size="12" fill="#1e1e1e" text-anchor="middle" font-weight="normal" opacity="0.72">for user, from R2</text><rect x="701" y="293" width="266" height="94" rx="6" fill="#b2f2bb" fill-opacity="0.85"/><path d="M698.4 292.8 Q835.4 294.4 969.0 291.9 L967.9 293.5 Q967.7 339.0 968.0 387.5 L968.5 387.2 Q834.1 389.1 701.0 387.6 L698.5 387.1 Q699.1 339.9 699.2 291.5Z" fill="none" stroke="#1e1e1e" stroke-width="1.5" stroke-linecap="round" opacity="1"/><path d="M698.5 292.1 Q831.3 291.6 967.3 292.4 L966.7 290.5 Q965.7 340.5 968.4 388.1 L968.3 386.5 Q832.2 386.8 700.0 387.6 L698.7 388.0 Q700.7 337.9 699.2 291.9Z" fill="none" stroke="#1e1e1e" stroke-width="1.0" stroke-linecap="round" opacity="0.55"/><text x="834" y="320" font-family="ui-monospace, SFMono-Regular, Menlo, Consolas, monospace" font-size="12" fill="#1e1e1e" text-anchor="middle" font-weight="bold" opacity="1.0">GOOGLE</text><text x="834" y="344" font-family="ui-monospace, SFMono-Regular, Menlo, Consolas, monospace" font-size="12" fill="#1e1e1e" text-anchor="middle" font-weight="normal" opacity="1.0">service-account JWT</text><text x="834" y="366" font-family="ui-monospace, SFMono-Regular, Menlo, Consolas, monospace" font-size="12" fill="#1e1e1e" text-anchor="middle" font-weight="normal" opacity="0.72">generic pass object</text></svg>